Oxanium-Regular.ufo
<glyph name="exclam" format="2">
  <advance width="260"/>
  <unicode hex="0021"/>
  <outline>
    <contour>
      <point x="80" y="0" type="line"/>
      <point x="80" y="110" type="line"/>
      <point x="180" y="110" type="line"/>
      <point x="180" y="0" type="line"/>
    </contour>
    <contour>
      <point x="88" y="210" type="line"/>
      <point x="88" y="690" type="line"/>
      <point x="172" y="690" type="line"/>
      <point x="172" y="210" type="line"/>
    </contour>
  </outline>
</glyph>
<glyph name="dollar" format="2">
  <advance width="578"/>
  <unicode hex="0024"/>
  <outline>
    <contour>
      <point x="69" y="35" type="line"/>
      <point x="69" y="76" type="line"/>
      <point x="357" y="76" type="line" smooth="yes"/>
      <point x="425" y="76"/>
      <point x="425" y="144" type="qcurve" smooth="yes"/>
      <point x="425" y="211" type="line" smooth="yes"/>
      <point x="425" y="268"/>
      <point x="374" y="278" type="qcurve" smooth="yes"/>
      <point x="179" y="317" type="line" smooth="yes"/>
      <point x="69" y="339"/>
      <point x="69" y="465" type="qcurve" smooth="yes"/>
      <point x="69" y="507" type="line" smooth="yes"/>
      <point x="69" y="660"/>
      <point x="222" y="660" type="qcurve" smooth="yes"/>
      <point x="254" y="660" type="line"/>
      <point x="254" y="780" type="line"/>
      <point x="324" y="780" type="line"/>
      <point x="324" y="660" type="line"/>
      <point x="444" y="660" type="line"/>
      <point x="489" y="625" type="line"/>
      <point x="489" y="584" type="line"/>
      <point x="221" y="584" type="line" smooth="yes"/>
      <point x="153" y="584"/>
      <point x="153" y="516" type="qcurve" smooth="yes"/>
      <point x="153" y="459" type="line" smooth="yes"/>
      <point x="153" y="402"/>
      <point x="204" y="392" type="qcurve" smooth="yes"/>
      <point x="399" y="353" type="line" smooth="yes"/>
      <point x="509" y="331"/>
      <point x="509" y="205" type="qcurve" smooth="yes"/>
      <point x="509" y="153" type="line" smooth="yes"/>
      <point x="509" y="0"/>
      <point x="356" y="0" type="qcurve" smooth="yes"/>
      <point x="324" y="0" type="line"/>
      <point x="324" y="-120" type="line"/>
      <point x="254" y="-120" type="line"/>
      <point x="254" y="0" type="line"/>
      <point x="114" y="0" type="line"/>
    </contour>
  </outline>
</glyph>
<glyph name="ampersand" format="2">
  <advance width="660"/>
  <unicode hex="0026"/>
  <outline>
    <contour>
      <point x="70" y="150" type="qcurve" smooth="yes"/>
      <point x="70" y="256" type="line" smooth="yes"/>
      <point x="70" y="308"/>
      <point x="103" y="336" type="qcurve" smooth="yes"/>
      <point x="145" y="371" type="line"/>
      <point x="110" y="413" type="line" smooth="yes"/>
      <point x="90" y="437"/>
      <point x="90" y="471" type="qcurve" smooth="yes"/>
      <point x="90" y="540" type="line" smooth="yes"/>
      <point x="90" y="690"/>
      <point x="240" y="690" type="qcurve" smooth="yes"/>
      <point x="430" y="690" type="line"/>
      <point x="470" y="660" type="line"/>
      <point x="470" y="620" type="line"/>
      <point x="240" y="620" type="line" smooth="yes"/>
      <point x="170" y="620"/>
      <point x="170" y="550" type="qcurve" smooth="yes"/>
      <point x="170" y="470" type="line" smooth="yes"/>
      <point x="170" y="400"/>
      <point x="240" y="400" type="qcurve" smooth="yes"/>
      <point x="620" y="400" type="line"/>
      <point x="620" y="330" type="line"/>
      <point x="520" y="330" type="line"/>
      <point x="520" y="0" type="line"/>
      <point x="220" y="0" type="line" smooth="yes"/>
      <point x="70" y="0"/>
    </contour>
    <contour>
      <point x="150" y="140" type="line" smooth="yes"/>
      <point x="150" y="70"/>
      <point x="220" y="70" type="qcurve" smooth="yes"/>
      <point x="440" y="70" type="line"/>
      <point x="440" y="330" type="line"/>
      <point x="220" y="330" type="line" smooth="yes"/>
      <point x="150" y="330"/>
      <point x="150" y="260" type="qcurve" smooth="yes"/>
    </contour>
  </outline>
</glyph>
<glyph name="parenright" format="2">
  <advance width="310"/>
  <unicode hex="0029"/>
  <outline>
    <contour>
      <point x="20" y="-144" type="line"/>
      <point x="157" y="47"/>
      <point x="157" y="533"/>
      <point x="20" y="724" type="qcurve"/>
      <point x="80" y="770" type="line"/>
      <point x="240" y="557"/>
      <point x="240" y="23"/>
      <point x="80" y="-190" type="qcurve"/>
    </contour>
  </outline>
</glyph>
<glyph name="asterisk" format="2">
  <advance width="500"/>
  <unicode hex="002A"/>
  <outline>
    <contour>
      <point x="41" y="516" type="line"/>
      <point x="60" y="573" type="line"/>
      <point x="218" y="525" type="line"/>
      <point x="218" y="690" type="line"/>
      <point x="282" y="690" type="line"/>
      <point x="282" y="525" type="line"/>
      <point x="440" y="573" type="line"/>
      <point x="459" y="516" type="line"/>
      <point x="303" y="463" type="line"/>
      <point x="398" y="328" type="line"/>
      <point x="349" y="293" type="line"/>
      <point x="250" y="423" type="line"/>
      <point x="151" y="293" type="line"/>
      <point x="102" y="328" type="line"/>
      <point x="197" y="463" type="line"/>
    </contour>
  </outline>
</glyph>
<glyph name="plus" format="2">
  <advance width="578"/>
  <unicode hex="002B"/>
  <outline>
    <contour>
      <point x="64" y="300" type="line"/>
      <point x="64" y="370" type="line"/>
      <point x="252" y="370" type="line"/>
      <point x="252" y="570" type="line"/>
      <point x="326" y="570" type="line"/>
      <point x="326" y="370" type="line"/>
      <point x="514" y="370" type="line"/>
      <point x="514" y="300" type="line"/>
      <point x="326" y="300" type="line"/>
      <point x="326" y="100" type="line"/>
      <point x="252" y="100" type="line"/>
      <point x="252" y="300" type="line"/>
    </contour>
  </outline>
</glyph>
<glyph name="one" format="2">
  <advance width="578"/>
  <unicode hex="0031"/>
  <outline>
    <contour>
      <point x="92" y="0" type="line"/>
      <point x="92" y="76" type="line"/>
      <point x="263" y="76" type="line"/>
      <point x="263" y="614" type="line"/>
      <point x="127" y="614" type="line"/>
      <point x="127" y="655" type="line"/>
      <point x="172" y="690" type="line"/>
      <point x="347" y="690" type="line"/>
      <point x="347" y="76" type="line"/>
      <point x="502" y="76" type="line"/>
      <point x="502" y="0" type="line"/>
    </contour>
  </outline>
</glyph>
<glyph name="two" format="2">
  <advance width="578"/>
  <unicode hex="0032"/>
  <outline>
    <contour>
      <point x="64" y="0" type="line"/>
      <point x="64" y="210" type="line" smooth="yes"/>
      <point x="64" y="336"/>
      <point x="174" y="358" type="qcurve" smooth="yes"/>
      <point x="379" y="399" type="line" smooth="yes"/>
      <point x="430" y="409"/>
      <point x="430" y="466" type="qcurve" smooth="yes"/>
      <point x="430" y="546" type="line" smooth="yes"/>
      <point x="430" y="614"/>
      <point x="362" y="614" type="qcurve" smooth="yes"/>
      <point x="84" y="614" type="line"/>
      <point x="84" y="655" type="line"/>
      <point x="129" y="690" type="line"/>
      <point x="361" y="690" type="line" smooth="yes"/>
      <point x="514" y="690"/>
      <point x="514" y="537" type="qcurve" smooth="yes"/>
      <point x="514" y="472" type="line" smooth="yes"/>
      <point x="514" y="346"/>
      <point x="404" y="324" type="qcurve" smooth="yes"/>
      <point x="199" y="283" type="line" smooth="yes"/>
      <point x="148" y="273"/>
      <point x="148" y="216" type="qcurve" smooth="yes"/>
      <point x="148" y="76" type="line"/>
      <point x="514" y="76" type="line"/>
      <point x="514" y="0" type="line"/>
    </contour>
  </outline>
</glyph>
<glyph name="five" format="2">
  <advance width="578"/>
  <unicode hex="0035"/>
  <outline>
    <contour>
      <point x="54" y="35" type="line"/>
      <point x="54" y="76" type="line"/>
      <point x="362" y="76" type="line" smooth="yes"/>
      <point x="430" y="76"/>
      <point x="430" y="144" type="qcurve" smooth="yes"/>
      <point x="430" y="266" type="line" smooth="yes"/>
      <point x="430" y="334"/>
      <point x="362" y="334" type="qcurve" smooth="yes"/>
      <point x="64" y="334" type="line"/>
      <point x="64" y="690" type="line"/>
      <point x="484" y="690" type="line"/>
      <point x="484" y="614" type="line"/>
      <point x="148" y="614" type="line"/>
      <point x="148" y="410" type="line"/>
      <point x="361" y="410" type="line" smooth="yes"/>
      <point x="514" y="410"/>
      <point x="514" y="257" type="qcurve" smooth="yes"/>
      <point x="514" y="153" type="line" smooth="yes"/>
      <point x="514" y="0"/>
      <point x="361" y="0" type="qcurve" smooth="yes"/>
      <point x="99" y="0" type="line"/>
    </contour>
  </outline>
</glyph>
<glyph name="six" format="2">
  <advance width="578"/>
  <unicode hex="0036"/>
  <outline>
    <contour>
      <point x="64" y="153" type="qcurve" smooth="yes"/>
      <point x="64" y="506" type="line" smooth="yes"/>
      <point x="64" y="690"/>
      <point x="248" y="690" type="qcurve" smooth="yes"/>
      <point x="429" y="690" type="line"/>
      <point x="474" y="655" type="line"/>
      <point x="474" y="614" type="line"/>
      <point x="244" y="614" type="line" smooth="yes"/>
      <point x="148" y="614"/>
      <point x="148" y="518" type="qcurve" smooth="yes"/>
      <point x="148" y="410" type="line"/>
      <point x="361" y="410" type="line" smooth="yes"/>
      <point x="514" y="410"/>
      <point x="514" y="257" type="qcurve" smooth="yes"/>
      <point x="514" y="153" type="line" smooth="yes"/>
      <point x="514" y="0"/>
      <point x="361" y="0" type="qcurve" smooth="yes"/>
      <point x="217" y="0" type="line" smooth="yes"/>
      <point x="64" y="0"/>
    </contour>
    <contour>
      <point x="148" y="144" type="line" smooth="yes"/>
      <point x="148" y="76"/>
      <point x="216" y="76" type="qcurve" smooth="yes"/>
      <point x="362" y="76" type="line" smooth="yes"/>
      <point x="430" y="76"/>
      <point x="430" y="144" type="qcurve" smooth="yes"/>
      <point x="430" y="266" type="line" smooth="yes"/>
      <point x="430" y="334"/>
      <point x="362" y="334" type="qcurve" smooth="yes"/>
      <point x="148" y="334" type="line"/>
    </contour>
  </outline>
</glyph>
<glyph name="seven" format="2">
  <advance width="578"/>
  <unicode hex="0037"/>
  <outline>
    <contour>
      <point x="64" y="614" type="line"/>
      <point x="64" y="690" type="line"/>
      <point x="514" y="690" type="line"/>
      <point x="514" y="515" type="line"/>
      <point x="244" y="0" type="line"/>
      <point x="169" y="0" type="line"/>
      <point x="158" y="20" type="line"/>
      <point x="430" y="534" type="line"/>
      <point x="430" y="614" type="line"/>
    </contour>
  </outline>
</glyph>
<glyph name="eight" format="2">
  <advance width="578"/>
  <unicode hex="0038"/>
  <outline>
    <contour>
      <point x="64" y="153" type="qcurve" smooth="yes"/>
      <point x="64" y="264" type="line" smooth="yes"/>
      <point x="64" y="304"/>
      <point x="89" y="329" type="qcurve" smooth="yes"/>
      <point x="124" y="364" type="line"/>
      <point x="89" y="399" type="line" smooth="yes"/>
      <point x="64" y="424"/>
      <point x="64" y="464" type="qcurve" smooth="yes"/>
      <point x="64" y="537" type="line" smooth="yes"/>
      <point x="64" y="690"/>
      <point x="217" y="690" type="qcurve" smooth="yes"/>
      <point x="361" y="690" type="line" smooth="yes"/>
      <point x="514" y="690"/>
      <point x="514" y="537" type="qcurve" smooth="yes"/>
      <point x="514" y="464" type="line" smooth="yes"/>
      <point x="514" y="424"/>
      <point x="489" y="399" type="qcurve" smooth="yes"/>
      <point x="454" y="364" type="line"/>
      <point x="489" y="329" type="line" smooth="yes"/>
      <point x="514" y="304"/>
      <point x="514" y="264" type="qcurve" smooth="yes"/>
      <point x="514" y="153" type="line" smooth="yes"/>
      <point x="514" y="0"/>
      <point x="361" y="0" type="qcurve" smooth="yes"/>
      <point x="217" y="0" type="line" smooth="yes"/>
      <point x="64" y="0"/>
    </contour>
    <contour>
      <point x="148" y="144" type="line" smooth="yes"/>
      <point x="148" y="76"/>
      <point x="216" y="76" type="qcurve" smooth="yes"/>
      <point x="362" y="76" type="line" smooth="yes"/>
      <point x="430" y="76"/>
      <point x="430" y="144" type="qcurve" smooth="yes"/>
      <point x="430" y="256" type="line" smooth="yes"/>
      <point x="430" y="324"/>
      <point x="362" y="324" type="qcurve" smooth="yes"/>
      <point x="216" y="324" type="line" smooth="yes"/>
      <point x="148" y="324"/>
      <point x="148" y="256" type="qcurve" smooth="yes"/>
    </contour>
    <contour>
      <point x="148" y="468" type="line" smooth="yes"/>
      <point x="148" y="400"/>
      <point x="216" y="400" type="qcurve" smooth="yes"/>
      <point x="362" y="400" type="line" smooth="yes"/>
      <point x="430" y="400"/>
      <point x="430" y="468" type="qcurve" smooth="yes"/>
      <point x="430" y="546" type="line" smooth="yes"/>
      <point x="430" y="614"/>
      <point x="362" y="614" type="qcurve" smooth="yes"/>
      <point x="216" y="614" type="line" smooth="yes"/>
      <point x="148" y="614"/>
      <point x="148" y="546" type="qcurve" smooth="yes"/>
    </contour>
  </outline>
</glyph>
<glyph name="less" format="2">
  <advance width="578"/>
  <unicode hex="003C"/>
  <outline>
    <contour>
      <point x="64" y="296" type="line"/>
      <point x="64" y="374" type="line"/>
      <point x="484" y="575" type="line"/>
      <point x="514" y="512" type="line"/>
      <point x="136" y="335" type="line"/>
      <point x="514" y="158" type="line"/>
      <point x="484" y="95" type="line"/>
    </contour>
  </outline>
</glyph>
<glyph name="question" format="2">
  <advance width="500"/>
  <unicode hex="003F"/>
  <outline>
    <contour>
      <point x="40" y="614" type="line"/>
      <point x="40" y="655" type="line"/>
      <point x="85" y="690" type="line"/>
      <point x="297" y="690" type="line" smooth="yes"/>
      <point x="450" y="690"/>
      <point x="450" y="537" type="qcurve" smooth="yes"/>
      <point x="450" y="447" type="line" smooth="yes"/>
      <point x="450" y="294"/>
      <point x="297" y="294" type="qcurve" smooth="yes"/>
      <point x="254" y="294" type="line"/>
      <point x="254" y="210" type="line"/>
      <point x="170" y="210" type="line"/>
      <point x="170" y="370" type="line"/>
      <point x="298" y="370" type="line" smooth="yes"/>
      <point x="366" y="370"/>
      <point x="366" y="438" type="qcurve" smooth="yes"/>
      <point x="366" y="546" type="line" smooth="yes"/>
      <point x="366" y="614"/>
      <point x="298" y="614" type="qcurve" smooth="yes"/>
    </contour>
    <contour>
      <point x="162" y="0" type="line"/>
      <point x="162" y="110" type="line"/>
      <point x="262" y="110" type="line"/>
      <point x="262" y="0" type="line"/>
    </contour>
  </outline>
</glyph>
<glyph name="A" format="2">
  <advance width="630"/>
  <unicode hex="0041"/>
  <outline>
    <contour>
      <point x="20" y="18" type="line"/>
      <point x="246" y="690" type="line"/>
      <point x="384" y="690" type="line"/>
      <point x="610" y="18" type="line"/>
      <point x="598" y="0" type="line"/>
      <point x="529" y="0" type="line"/>
      <point x="472" y="174" type="line"/>
      <point x="158" y="174" type="line"/>
      <point x="101" y="0" type="line"/>
      <point x="32" y="0" type="line"/>
    </contour>
    <contour>
      <point x="183" y="250" type="line"/>
      <point x="447" y="250" type="line"/>
      <point x="327" y="614" type="line"/>
      <point x="303" y="614" type="line"/>
    </contour>
  </outline>
</glyph>
<glyph name="D" format="2">
  <advance width="680"/>
  <unicode hex="0044"/>
  <outline>
    <contour>
      <point x="90" y="0" type="line"/>
      <point x="90" y="690" type="line"/>
      <point x="360" y="690" type="line" smooth="yes"/>
      <point x="610" y="690"/>
      <point x="610" y="440" type="qcurve" smooth="yes"/>
      <point x="610" y="250" type="line" smooth="yes"/>
      <point x="610" y="0"/>
      <point x="360" y="0" type="qcurve" smooth="yes"/>
    </contour>
    <contour>
      <point x="174" y="76" type="line"/>
      <point x="365" y="76" type="line" smooth="yes"/>
      <point x="526" y="76"/>
      <point x="526" y="237" type="qcurve" smooth="yes"/>
      <point x="526" y="453" type="line" smooth="yes"/>
      <point x="526" y="614"/>
      <point x="365" y="614" type="qcurve" smooth="yes"/>
      <point x="174" y="614" type="line"/>
    </contour>
  </outline>
</glyph>
<glyph name="J" format="2">
  <advance width="604"/>
  <unicode hex="004A"/>
  <outline>
    <contour>
      <point x="60" y="153" type="qcurve" smooth="yes"/>
      <point x="60" y="260" type="line"/>
      <point x="144" y="260" type="line"/>
      <point x="144" y="144" type="line" smooth="yes"/>
      <point x="144" y="76"/>
      <point x="212" y="76" type="qcurve" smooth="yes"/>
      <point x="368" y="76" type="line" smooth="yes"/>
      <point x="436" y="76"/>
      <point x="436" y="144" type="qcurve" smooth="yes"/>
      <point x="436" y="614" type="line"/>
      <point x="210" y="614" type="line"/>
      <point x="210" y="690" type="line"/>
      <point x="520" y="690" type="line"/>
      <point x="520" y="153" type="line" smooth="yes"/>
      <point x="520" y="0"/>
      <point x="367" y="0" type="qcurve" smooth="yes"/>
      <point x="213" y="0" type="line" smooth="yes"/>
      <point x="60" y="0"/>
    </contour>
  </outline>
</glyph>
<glyph name="K" format="2">
  <advance width="630"/>
  <unicode hex="004B"/>
  <outline>
    <contour>
      <point x="90" y="0" type="line"/>
      <point x="90" y="690" type="line"/>
      <point x="174" y="690" type="line"/>
      <point x="174" y="336" type="line"/>
      <point x="491" y="690" type="line"/>
      <point x="568" y="690" type="line"/>
      <point x="577" y="671" type="line"/>
      <point x="339" y="406" type="line"/>
      <point x="600" y="19" type="line"/>
      <point x="591" y="0" type="line"/>
      <point x="514" y="0" type="line"/>
      <point x="284" y="345" type="line"/>
      <point x="174" y="224" type="line"/>
      <point x="174" y="0" type="line"/>
    </contour>
  </outline>
</glyph>
<glyph name="M" format="2">
  <advance width="870"/>
  <unicode hex="004D"/>
  <outline>
    <contour>
      <point x="90" y="0" type="line"/>
      <point x="90" y="690" type="line"/>
      <point x="201" y="690" type="line"/>
      <point x="435" y="192" type="line"/>
      <point x="669" y="690" type="line"/>
      <point x="780" y="690" type="line"/>
      <point x="780" y="0" type="line"/>
      <point x="696" y="0" type="line"/>
      <point x="696" y="564" type="line"/>
      <point x="478" y="100" type="line"/>
      <point x="392" y="100" type="line"/>
      <point x="174" y="564" type="line"/>
      <point x="174" y="0" type="line"/>
    </contour>
  </outline>
</glyph>
<glyph name="N" format="2">
  <advance width="720"/>
  <unicode hex="004E"/>
  <outline>
    <contour>
      <point x="90" y="0" type="line"/>
      <point x="90" y="690" type="line"/>
      <point x="183" y="690" type="line"/>
      <point x="546" y="130" type="line"/>
      <point x="546" y="690" type="line"/>
      <point x="630" y="690" type="line"/>
      <point x="630" y="0" type="line"/>
      <point x="537" y="0" type="line"/>
      <point x="174" y="560" type="line"/>
      <point x="174" y="0" type="line"/>
    </contour>
  </outline>
</glyph>
<glyph name="Q" format="2">
  <advance width="700"/>
  <unicode hex="0051"/>
  <outline>
    <contour>
      <point x="80" y="153" type="qcurve" smooth="yes"/>
      <point x="80" y="537" type="line" smooth="yes"/>
      <point x="80" y="690"/>
      <point x="233" y="690" type="qcurve" smooth="yes"/>
      <point x="467" y="690" type="line" smooth="yes"/>
      <point x="620" y="690"/>
      <point x="620" y="537" type="qcurve" smooth="yes"/>
      <point x="620" y="153" type="line" smooth="yes"/>
      <point x="620" y="12"/>
      <point x="490" y="1" type="qcurve"/>
      <point x="557" y="-130" type="line"/>
      <point x="546" y="-150" type="line"/>
      <point x="475" y="-150" type="line"/>
      <point x="399" y="0" type="line"/>
      <point x="233" y="0" type="line" smooth="yes"/>
      <point x="80" y="0"/>
    </contour>
    <contour>
      <point x="164" y="144" type="line" smooth="yes"/>
      <point x="164" y="76"/>
      <point x="232" y="76" type="qcurve" smooth="yes"/>
      <point x="468" y="76" type="line" smooth="yes"/>
      <point x="536" y="76"/>
      <point x="536" y="144" type="qcurve" smooth="yes"/>
      <point x="536" y="546" type="line" smooth="yes"/>
      <point x="536" y="614"/>
      <point x="468" y="614" type="qcurve" smooth="yes"/>
      <point x="232" y="614" type="line" smooth="yes"/>
      <point x="164" y="614"/>
      <point x="164" y="546" type="qcurve" smooth="yes"/>
    </contour>
  </outline>
</glyph>
<glyph name="R" format="2">
  <advance width="640"/>
  <unicode hex="0052"/>
  <outline>
    <contour>
      <point x="90" y="0" type="line"/>
      <point x="90" y="690" type="line"/>
      <point x="417" y="690" type="line" smooth="yes"/>
      <point x="570" y="690"/>
      <point x="570" y="537" type="qcurve" smooth="yes"/>
      <point x="570" y="427" type="line" smooth="yes"/>
      <point x="570" y="297"/>
      <point x="459" y="277" type="qcurve"/>
      <point x="590" y="20" type="line"/>
      <point x="579" y="0" type="line"/>
      <point x="508" y="0" type="line"/>
      <point x="369" y="274" type="line"/>
      <point x="174" y="274" type="line"/>
      <point x="174" y="0" type="line"/>
    </contour>
    <contour>
      <point x="174" y="350" type="line"/>
      <point x="418" y="350" type="line" smooth="yes"/>
      <point x="486" y="350"/>
      <point x="486" y="418" type="qcurve" smooth="yes"/>
      <point x="486" y="546" type="line" smooth="yes"/>
      <point x="486" y="614"/>
      <point x="418" y="614" type="qcurve" smooth="yes"/>
      <point x="174" y="614" type="line"/>
    </contour>
  </outline>
</glyph>
<glyph name="S" format="2">
  <advance width="580"/>
  <unicode hex="0053"/>
  <outline>
    <contour>
      <point x="60" y="35" type="line"/>
      <point x="60" y="76" type="line"/>
      <point x="368" y="76" type="line" smooth="yes"/>
      <point x="436" y="76"/>
      <point x="436" y="144" type="qcurve" smooth="yes"/>
      <point x="436" y="226" type="line" smooth="yes"/>
      <point x="436" y="283"/>
      <point x="385" y="293" type="qcurve" smooth="yes"/>
      <point x="170" y="336" type="line" smooth="yes"/>
      <point x="60" y="358"/>
      <point x="60" y="484" type="qcurve" smooth="yes"/>
      <point x="60" y="537" type="line" smooth="yes"/>
      <point x="60" y="690"/>
      <point x="213" y="690" type="qcurve" smooth="yes"/>
      <point x="455" y="690" type="line"/>
      <point x="500" y="655" type="line"/>
      <point x="500" y="614" type="line"/>
      <point x="212" y="614" type="line" smooth="yes"/>
      <point x="144" y="614"/>
      <point x="144" y="546" type="qcurve" smooth="yes"/>
      <point x="144" y="478" type="line" smooth="yes"/>
      <point x="144" y="421"/>
      <point x="195" y="411" type="qcurve" smooth="yes"/>
      <point x="410" y="368" type="line" smooth="yes"/>
      <point x="520" y="346"/>
      <point x="520" y="220" type="qcurve" smooth="yes"/>
      <point x="520" y="153" type="line" smooth="yes"/>
      <point x="520" y="0"/>
      <point x="367" y="0" type="qcurve" smooth="yes"/>
      <point x="105" y="0" type="line"/>
    </contour>
  </outline>
</glyph>
<glyph name="T" format="2">
  <advance width="592"/>
  <unicode hex="0054"/>
  <outline>
    <contour>
      <point x="24" y="614" type="line"/>
      <point x="24" y="690" type="line"/>
      <point x="568" y="690" type="line"/>
      <point x="568" y="614" type="line"/>
      <point x="338" y="614" type="line"/>
      <point x="338" y="0" type="line"/>
      <point x="254" y="0" type="line"/>
      <point x="254" y="614" type="line"/>
    </contour>
  </outline>
</glyph>
<glyph name="V" format="2">
  <advance width="620"/>
  <unicode hex="0056"/>
  <outline>
    <contour>
      <point x="20" y="672" type="line"/>
      <point x="32" y="690" type="line"/>
      <point x="103" y="690" type="line"/>
      <point x="298" y="76" type="line"/>
      <point x="322" y="76" type="line"/>
      <point x="517" y="690" type="line"/>
      <point x="588" y="690" type="line"/>
      <point x="600" y="672" type="line"/>
      <point x="382" y="0" type="line"/>
      <point x="238" y="0" type="line"/>
    </contour>
  </outline>
</glyph>
<glyph name="Y" format="2">
  <advance width="580"/>
  <unicode hex="0059"/>
  <outline>
    <contour>
      <point x="20" y="672" type="line"/>
      <point x="31" y="690" type="line"/>
      <point x="102" y="690" type="line"/>
      <point x="290" y="341" type="line"/>
      <point x="478" y="690" type="line"/>
      <point x="549" y="690" type="line"/>
      <point x="560" y="672" type="line"/>
      <point x="332" y="256" type="line"/>
      <point x="332" y="0" type="line"/>
      <point x="248" y="0" type="line"/>
      <point x="248" y="256" type="line"/>
    </contour>
  </outline>
</glyph>
<glyph name="Z" format="2">
  <advance width="600"/>
  <unicode hex="005A"/>
  <outline>
    <contour>
      <point x="50" y="0" type="line"/>
      <point x="50" y="67" type="line"/>
      <point x="436" y="614" type="line"/>
      <point x="60" y="614" type="line"/>
      <point x="60" y="690" type="line"/>
      <point x="540" y="690" type="line"/>
      <point x="540" y="623" type="line"/>
      <point x="154" y="76" type="line"/>
      <point x="550" y="76" type="line"/>
      <point x="550" y="0" type="line"/>
    </contour>
  </outline>
</glyph>
<glyph name="bracketleft" format="2">
  <advance width="340"/>
  <unicode hex="005B"/>
  <outline>
    <contour>
      <point x="90" y="-180" type="line"/>
      <point x="90" y="760" type="line"/>
      <point x="310" y="760" type="line"/>
      <point x="310" y="690" type="line"/>
      <point x="170" y="690" type="line"/>
      <point x="170" y="-110" type="line"/>
      <point x="310" y="-110" type="line"/>
      <point x="310" y="-180" type="line"/>
    </contour>
  </outline>
</glyph>
<glyph name="bracketright" format="2">
  <advance width="340"/>
  <unicode hex="005D"/>
  <outline>
    <contour>
      <point x="30" y="-110" type="line"/>
      <point x="170" y="-110" type="line"/>
      <point x="170" y="690" type="line"/>
      <point x="30" y="690" type="line"/>
      <point x="30" y="760" type="line"/>
      <point x="250" y="760" type="line"/>
      <point x="250" y="-180" type="line"/>
      <point x="30" y="-180" type="line"/>
    </contour>
  </outline>
</glyph>
<glyph name="e" format="2">
  <advance width="574"/>
  <unicode hex="0065"/>
  <outline>
    <contour>
      <point x="72" y="150" type="qcurve" smooth="yes"/>
      <point x="72" y="370" type="line" smooth="yes"/>
      <point x="72" y="520"/>
      <point x="222" y="520" type="qcurve" smooth="yes"/>
      <point x="352" y="520" type="line" smooth="yes"/>
      <point x="502" y="520"/>
      <point x="502" y="370" type="qcurve" smooth="yes"/>
      <point x="502" y="226" type="line"/>
      <point x="152" y="226" type="line"/>
      <point x="152" y="140" type="line" smooth="yes"/>
      <point x="152" y="70"/>
      <point x="222" y="70" type="qcurve" smooth="yes"/>
      <point x="482" y="70" type="line"/>
      <point x="482" y="30" type="line"/>
      <point x="442" y="0" type="line"/>
      <point x="222" y="0" type="line" smooth="yes"/>
      <point x="72" y="0"/>
    </contour>
    <contour>
      <point x="152" y="296" type="line"/>
      <point x="422" y="296" type="line"/>
      <point x="422" y="380" type="line" smooth="yes"/>
      <point x="422" y="450"/>
      <point x="352" y="450" type="qcurve" smooth="yes"/>
      <point x="222" y="450" type="line" smooth="yes"/>
      <point x="152" y="450"/>
      <point x="152" y="380" type="qcurve" smooth="yes"/>
    </contour>
  </outline>
</glyph>
<glyph name="f" format="2">
  <advance width="380"/>
  <unicode hex="0066"/>
  <outline>
    <contour>
      <point x="80" y="0" type="line"/>
      <point x="80" y="590" type="line" smooth="yes"/>
      <point x="80" y="740"/>
      <point x="230" y="740" type="qcurve" smooth="yes"/>
      <point x="320" y="740" type="line"/>
      <point x="360" y="710" type="line"/>
      <point x="360" y="670" type="line"/>
      <point x="230" y="670" type="line" smooth="yes"/>
      <point x="160" y="670"/>
      <point x="160" y="600" type="qcurve" smooth="yes"/>
      <point x="160" y="520" type="line"/>
      <point x="350" y="520" type="line"/>
      <point x="350" y="450" type="line"/>
      <point x="160" y="450" type="line"/>
      <point x="160" y="0" type="line"/>
    </contour>
  </outline>
</glyph>
<glyph name="i" format="2">
  <advance width="240"/>
  <unicode hex="0069"/>
  <outline>
    <contour>
      <point x="78" y="614" type="line"/>
      <point x="78" y="706" type="line"/>
      <point x="162" y="706" type="line"/>
      <point x="162" y="614" type="line"/>
    </contour>
    <contour>
      <point x="80" y="0" type="line"/>
      <point x="80" y="520" type="line"/>
      <point x="160" y="520" type="line"/>
      <point x="160" y="0" type="line"/>
    </contour>
  </outline>
</glyph>
<glyph name="k" format="2">
  <advance width="528"/>
  <unicode hex="006B"/>
  <outline>
    <contour>
      <point x="80" y="0" type="line"/>
      <point x="80" y="740" type="line"/>
      <point x="160" y="740" type="line"/>
      <point x="160" y="255" type="line"/>
      <point x="401" y="520" type="line"/>
      <point x="479" y="520" type="line"/>
      <point x="486" y="505" type="line"/>
      <point x="300" y="302" type="line"/>
      <point x="500" y="15" type="line"/>
      <point x="493" y="0" type="line"/>
      <point x="415" y="0" type="line"/>
      <point x="247" y="244" type="line"/>
      <point x="160" y="150" type="line"/>
      <point x="160" y="0" type="line"/>
    </contour>
  </outline>
</glyph>
<glyph name="p" format="2">
  <advance width="582"/>
  <unicode hex="0070"/>
  <outline>
    <contour>
      <point x="80" y="-200" type="line"/>
      <point x="80" y="520" type="line"/>
      <point x="360" y="520" type="line" smooth="yes"/>
      <point x="510" y="520"/>
      <point x="510" y="370" type="qcurve" smooth="yes"/>
      <point x="510" y="150" type="line" smooth="yes"/>
      <point x="510" y="0"/>
      <point x="360" y="0" type="qcurve" smooth="yes"/>
      <point x="160" y="0" type="line"/>
      <point x="160" y="-200" type="line"/>
    </contour>
    <contour>
      <point x="160" y="70" type="line"/>
      <point x="360" y="70" type="line" smooth="yes"/>
      <point x="430" y="70"/>
      <point x="430" y="140" type="qcurve" smooth="yes"/>
      <point x="430" y="380" type="line" smooth="yes"/>
      <point x="430" y="450"/>
      <point x="360" y="450" type="qcurve" smooth="yes"/>
      <point x="160" y="450" type="line"/>
    </contour>
  </outline>
</glyph>
<glyph name="q" format="2">
  <advance width="582"/>
  <unicode hex="0071"/>
  <outline>
    <contour>
      <point x="72" y="150" type="qcurve" smooth="yes"/>
      <point x="72" y="370" type="line" smooth="yes"/>
      <point x="72" y="520"/>
      <point x="222" y="520" type="qcurve" smooth="yes"/>
      <point x="502" y="520" type="line"/>
      <point x="502" y="-200" type="line"/>
      <point x="422" y="-200" type="line"/>
      <point x="422" y="0" type="line"/>
      <point x="222" y="0" type="line" smooth="yes"/>
      <point x="72" y="0"/>
    </contour>
    <contour>
      <point x="152" y="140" type="line" smooth="yes"/>
      <point x="152" y="70"/>
      <point x="222" y="70" type="qcurve" smooth="yes"/>
      <point x="422" y="70" type="line"/>
      <point x="422" y="450" type="line"/>
      <point x="222" y="450" type="line" smooth="yes"/>
      <point x="152" y="450"/>
      <point x="152" y="380" type="qcurve" smooth="yes"/>
    </contour>
  </outline>
</glyph>
<glyph name="t" format="2">
  <advance width="392"/>
  <unicode hex="0074"/>
  <outline>
    <contour>
      <point x="76" y="150" type="qcurve" smooth="yes"/>
      <point x="76" y="690" type="line"/>
      <point x="156" y="690" type="line"/>
      <point x="156" y="520" type="line"/>
      <point x="346" y="520" type="line"/>
      <point x="346" y="450" type="line"/>
      <point x="156" y="450" type="line"/>
      <point x="156" y="140" type="line" smooth="yes"/>
      <point x="156" y="70"/>
      <point x="226" y="70" type="qcurve" smooth="yes"/>
      <point x="356" y="70" type="line"/>
      <point x="356" y="30" type="line"/>
      <point x="316" y="0" type="line"/>
      <point x="226" y="0" type="line" smooth="yes"/>
      <point x="76" y="0"/>
    </contour>
  </outline>
</glyph>
<glyph name="v" format="2">
  <advance width="520"/>
  <unicode hex="0076"/>
  <outline>
    <contour>
      <point x="20" y="506" type="line"/>
      <point x="29" y="520" type="line"/>
      <point x="98" y="520" type="line"/>
      <point x="250" y="70" type="line"/>
      <point x="270" y="70" type="line"/>
      <point x="422" y="520" type="line"/>
      <point x="491" y="520" type="line"/>
      <point x="500" y="506" type="line"/>
      <point x="325" y="0" type="line"/>
      <point x="195" y="0" type="line"/>
    </contour>
  </outline>
</glyph>
<glyph name="braceleft" format="2">
  <advance width="380"/>
  <unicode hex="007B"/>
  <outline>
    <contour>
      <point x="50" y="270" type="line"/>
      <point x="50" y="310" type="line"/>
      <point x="140" y="400" type="line"/>
      <point x="140" y="610" type="line" smooth="yes"/>
      <point x="140" y="760"/>
      <point x="290" y="760" type="qcurve" smooth="yes"/>
      <point x="350" y="760" type="line"/>
      <point x="350" y="690" type="line"/>
      <point x="290" y="690" type="line" smooth="yes"/>
      <point x="220" y="690"/>
      <point x="220" y="620" type="qcurve" smooth="yes"/>
      <point x="220" y="380" type="line"/>
      <point x="130" y="290" type="line"/>
      <point x="220" y="200" type="line"/>
      <point x="220" y="-40" type="line" smooth="yes"/>
      <point x="220" y="-110"/>
      <point x="290" y="-110" type="qcurve" smooth="yes"/>
      <point x="350" y="-110" type="line"/>
      <point x="350" y="-180" type="line"/>
      <point x="290" y="-180" type="line" smooth="yes"/>
      <point x="140" y="-180"/>
      <point x="140" y="-30" type="qcurve" smooth="yes"/>
      <point x="140" y="180" type="line"/>
    </contour>
  </outline>
</glyph>
<glyph name="bar" format="2">
  <advance width="274"/>
  <unicode hex="007C"/>
  <outline>
    <contour>
      <point x="100" y="-200" type="line"/>
      <point x="100" y="740" type="line"/>
      <point x="174" y="740" type="line"/>
      <point x="174" y="-200" type="line"/>
    </contour>
  </outline>
</glyph>
<glyph name="braceright" format="2">
  <advance width="380"/>
  <unicode hex="007D"/>
  <outline>
    <contour>
      <point x="30" y="-110" type="line"/>
      <point x="90" y="-110" type="line" smooth="yes"/>
      <point x="160" y="-110"/>
      <point x="160" y="-40" type="qcurve" smooth="yes"/>
      <point x="160" y="200" type="line"/>
      <point x="250" y="290" type="line"/>
      <point x="160" y="380" type="line"/>
      <point x="160" y="620" type="line" smooth="yes"/>
      <point x="160" y="690"/>
      <point x="90" y="690" type="qcurve" smooth="yes"/>
      <point x="30" y="690" type="line"/>
      <point x="30" y="760" type="line"/>
      <point x="90" y="760" type="line" smooth="yes"/>
      <point x="240" y="760"/>
      <point x="240" y="610" type="qcurve" smooth="yes"/>
      <point x="240" y="400" type="line"/>
      <point x="330" y="310" type="line"/>
      <point x="330" y="270" type="line"/>
      <point x="240" y="180" type="line"/>
      <point x="240" y="-30" type="line" smooth="yes"/>
      <point x="240" y="-180"/>
      <point x="90" y="-180" type="qcurve" smooth="yes"/>
      <point x="30" y="-180" type="line"/>
    </contour>
  </outline>
</glyph>
<glyph name="asciitilde" format="2">
  <advance width="578"/>
  <unicode hex="007E"/>
  <outline>
    <contour>
      <point x="49" y="305" type="line"/>
      <point x="138" y="394" type="line" smooth="yes"/>
      <point x="169" y="425"/>
      <point x="249" y="425"/>
      <point x="280" y="394" type="qcurve" smooth="yes"/>
      <point x="340" y="334" type="line" smooth="yes"/>
      <point x="355" y="319"/>
      <point x="383" y="319"/>
      <point x="398" y="334" type="qcurve" smooth="yes"/>
      <point x="479" y="415" type="line"/>
      <point x="529" y="365" type="line"/>
      <point x="440" y="276" type="line" smooth="yes"/>
      <point x="409" y="245"/>
      <point x="329" y="245"/>
      <point x="298" y="276" type="qcurve" smooth="yes"/>
      <point x="238" y="336" type="line" smooth="yes"/>
      <point x="223" y="351"/>
      <point x="195" y="351"/>
      <point x="180" y="336" type="qcurve" smooth="yes"/>
      <point x="99" y="255" type="line"/>
    </contour>
  </outline>
</glyph>
<glyph name="exclamdown" format="2">
  <advance width="260"/>
  <unicode hex="00A1"/>
  <outline>
    <contour>
      <point x="80" y="410" type="line"/>
      <point x="80" y="520" type="line"/>
      <point x="180" y="520" type="line"/>
      <point x="180" y="410" type="line"/>
    </contour>
    <contour>
      <point x="88" y="-170" type="line"/>
      <point x="88" y="310" type="line"/>
      <point x="172" y="310" type="line"/>
      <point x="172" y="-170" type="line"/>
    </contour>
  </outline>
</glyph>
<glyph name="yen" format="2">
  <advance width="578"/>
  <unicode hex="00A5"/>
  <outline>
    <contour>
      <point x="30" y="672" type="line"/>
      <point x="41" y="690" type="line"/>
      <point x="112" y="690" type="line"/>
      <point x="289" y="361" type="line"/>
      <point x="466" y="690" type="line"/>
      <point x="537" y="690" type="line"/>
      <point x="548" y="672" type="line"/>
      <point x="355" y="320" type="line"/>
      <point x="481" y="320" type="line"/>
      <point x="481" y="258" type="line"/>
      <point x="331" y="258" type="line"/>
      <point x="331" y="182" type="line"/>
      <point x="481" y="182" type="line"/>
      <point x="481" y="120" type="line"/>
      <point x="331" y="120" type="line"/>
      <point x="331" y="0" type="line"/>
      <point x="247" y="0" type="line"/>
      <point x="247" y="120" type="line"/>
      <point x="97" y="120" type="line"/>
      <point x="97" y="182" type="line"/>
      <point x="247" y="182" type="line"/>
      <point x="247" y="258" type="line"/>
      <point x="97" y="258" type="line"/>
      <point x="97" y="320" type="line"/>
      <point x="223" y="320" type="line"/>
    </contour>
  </outline>
</glyph>
<glyph name="brokenbar" format="2">
  <advance width="274"/>
  <unicode hex="00A6"/>
  <outline>
    <contour>
      <point x="100" y="170" type="line"/>
      <point x="174" y="170" type="line"/>
      <point x="174" y="-200" type="line"/>
      <point x="100" y="-200" type="line"/>
    </contour>
    <contour>
      <point x="100" y="370" type="line"/>
      <point x="100" y="740" type="line"/>
      <point x="174" y="740" type="line"/>
      <point x="174" y="370" type="line"/>
    </contour>
  </outline>
</glyph>
<glyph name="section" format="2">
  <advance width="540"/>
  <unicode hex="00A7"/>
  <outline>
    <contour>
      <point x="80" y="-30" type="line"/>
      <point x="310" y="-30" type="line" smooth="yes"/>
      <point x="380" y="-30"/>
      <point x="380" y="40" type="qcurve" smooth="yes"/>
      <point x="380" y="110"/>
      <point x="320" y="120" type="qcurve" smooth="yes"/>
      <point x="200" y="140" type="line" smooth="yes"/>
      <point x="80" y="160"/>
      <point x="80" y="272" type="qcurve" smooth="yes"/>
      <point x="80" y="380" type="line"/>
      <point x="128" y="428" type="line"/>
      <point x="80" y="464"/>
      <point x="80" y="542" type="qcurve" smooth="yes"/>
      <point x="80" y="690"/>
      <point x="230" y="690" type="qcurve" smooth="yes"/>
      <point x="396" y="690" type="line"/>
      <point x="436" y="660" type="line"/>
      <point x="436" y="620" type="line"/>
      <point x="230" y="620" type="line" smooth="yes"/>
      <point x="160" y="620"/>
      <point x="160" y="550" type="qcurve" smooth="yes"/>
      <point x="160" y="480"/>
      <point x="220" y="470" type="qcurve" smooth="yes"/>
      <point x="340" y="450" type="line" smooth="yes"/>
      <point x="460" y="430"/>
      <point x="460" y="318" type="qcurve" smooth="yes"/>
      <point x="460" y="210" type="line"/>
      <point x="412" y="162" type="line"/>
      <point x="460" y="126"/>
      <point x="460" y="48" type="qcurve" smooth="yes"/>
      <point x="460" y="-100"/>
      <point x="310" y="-100" type="qcurve" smooth="yes"/>
      <point x="120" y="-100" type="line"/>
      <point x="80" y="-70" type="line"/>
    </contour>
    <contour>
      <point x="160" y="280" type="line" smooth="yes"/>
      <point x="160" y="220"/>
      <point x="220" y="210" type="qcurve" smooth="yes"/>
      <point x="380" y="183" type="line"/>
      <point x="380" y="310" type="line" smooth="yes"/>
      <point x="380" y="370"/>
      <point x="320" y="380" type="qcurve" smooth="yes"/>
      <point x="160" y="407" type="line"/>
    </contour>
  </outline>
</glyph>
<glyph name="copyright" format="2">
  <advance width="840"/>
  <unicode hex="00A9"/>
  <outline>
    <contour>
      <point x="80" y="98" type="qcurve" smooth="yes"/>
      <point x="80" y="592" type="line" smooth="yes"/>
      <point x="80" y="690"/>
      <point x="178" y="690" type="qcurve" smooth="yes"/>
      <point x="662" y="690" type="line" smooth="yes"/>
      <point x="760" y="690"/>
      <point x="760" y="592" type="qcurve" smooth="yes"/>
      <point x="760" y="98" type="line" smooth="yes"/>
      <point x="760" y="0"/>
      <point x="662" y="0" type="qcurve" smooth="yes"/>
      <point x="178" y="0" type="line" smooth="yes"/>
      <point x="80" y="0"/>
    </contour>
    <contour>
      <point x="140" y="88" type="line" smooth="yes"/>
      <point x="140" y="54"/>
      <point x="174" y="54" type="qcurve" smooth="yes"/>
      <point x="666" y="54" type="line" smooth="yes"/>
      <point x="700" y="54"/>
      <point x="700" y="88" type="qcurve" smooth="yes"/>
      <point x="700" y="602" type="line" smooth="yes"/>
      <point x="700" y="636"/>
      <point x="666" y="636" type="qcurve" smooth="yes"/>
      <point x="174" y="636" type="line" smooth="yes"/>
      <point x="140" y="636"/>
      <point x="140" y="602" type="qcurve" smooth="yes"/>
    </contour>
    <contour>
      <point x="260" y="250" type="qcurve" smooth="yes"/>
      <point x="260" y="440" type="line" smooth="yes"/>
      <point x="260" y="540"/>
      <point x="360" y="540" type="qcurve" smooth="yes"/>
      <point x="518" y="540" type="line"/>
      <point x="550" y="515" type="line"/>
      <point x="550" y="482" type="line"/>
      <point x="356" y="482" type="line" smooth="yes"/>
      <point x="324" y="482"/>
      <point x="324" y="450" type="qcurve" smooth="yes"/>
      <point x="324" y="240" type="line" smooth="yes"/>
      <point x="324" y="208"/>
      <point x="356" y="208" type="qcurve" smooth="yes"/>
      <point x="550" y="208" type="line"/>
      <point x="550" y="175" type="line"/>
      <point x="518" y="150" type="line"/>
      <point x="360" y="150" type="line" smooth="yes"/>
      <point x="260" y="150"/>
    </contour>
  </outline>
</glyph>
<glyph name="degree" format="2">
  <advance width="410"/>
  <unicode hex="00B0"/>
  <outline>
    <contour>
      <point x="60" y="468" type="qcurve" smooth="yes"/>
      <point x="60" y="592" type="line" smooth="yes"/>
      <point x="60" y="690"/>
      <point x="158" y="690" type="qcurve" smooth="yes"/>
      <point x="252" y="690" type="line" smooth="yes"/>
      <point x="350" y="690"/>
      <point x="350" y="592" type="qcurve" smooth="yes"/>
      <point x="350" y="468" type="line" smooth="yes"/>
      <point x="350" y="370"/>
      <point x="252" y="370" type="qcurve" smooth="yes"/>
      <point x="158" y="370" type="line" smooth="yes"/>
      <point x="60" y="370"/>
    </contour>
    <contour>
      <point x="120" y="458" type="line" smooth="yes"/>
      <point x="120" y="424"/>
      <point x="154" y="424" type="qcurve" smooth="yes"/>
      <point x="256" y="424" type="line" smooth="yes"/>
      <point x="290" y="424"/>
      <point x="290" y="458" type="qcurve" smooth="yes"/>
      <point x="290" y="602" type="line" smooth="yes"/>
      <point x="290" y="636"/>
      <point x="256" y="636" type="qcurve" smooth="yes"/>
      <point x="154" y="636" type="line" smooth="yes"/>
      <point x="120" y="636"/>
      <point x="120" y="602" type="qcurve" smooth="yes"/>
    </contour>
  </outline>
</glyph>
<glyph name="plusminus" format="2">
  <advance width="578"/>
  <unicode hex="00B1"/>
  <outline>
    <contour>
      <point x="64" y="0" type="line"/>
      <point x="64" y="70" type="line"/>
      <point x="514" y="70" type="line"/>
      <point x="514" y="0" type="line"/>
    </contour>
    <contour>
      <point x="64" y="320" type="line"/>
      <point x="64" y="390" type="line"/>
      <point x="252" y="390" type="line"/>
      <point x="252" y="580" type="line"/>
      <point x="326" y="580" type="line"/>
      <point x="326" y="390" type="line"/>
      <point x="514" y="390" type="line"/>
      <point x="514" y="320" type="line"/>
      <point x="326" y="320" type="line"/>
      <point x="326" y="130" type="line"/>
      <point x="252" y="130" type="line"/>
      <point x="252" y="320" type="line"/>
    </contour>
  </outline>
</glyph>
<glyph name="uni00B3" format="2">
  <advance width="360"/>
  <unicode hex="00B3"/>
  <outline>
    <contour>
      <point x="46" y="305" type="line"/>
      <point x="46" y="338" type="line"/>
      <point x="224" y="338" type="line" smooth="yes"/>
      <point x="256" y="338"/>
      <point x="256" y="370" type="qcurve" smooth="yes"/>
      <point x="256" y="430" type="line" smooth="yes"/>
      <point x="256" y="462"/>
      <point x="224" y="462" type="qcurve" smooth="yes"/>
      <point x="90" y="462" type="line"/>
      <point x="90" y="520" type="line"/>
      <point x="224" y="520" type="line" smooth="yes"/>
      <point x="256" y="520"/>
      <point x="256" y="552" type="qcurve" smooth="yes"/>
      <point x="256" y="600" type="line" smooth="yes"/>
      <point x="256" y="632"/>
      <point x="224" y="632" type="qcurve" smooth="yes"/>
      <point x="52" y="632" type="line"/>
      <point x="52" y="665" type="line"/>
      <point x="84" y="690" type="line"/>
      <point x="220" y="690" type="line" smooth="yes"/>
      <point x="320" y="690"/>
      <point x="320" y="590" type="qcurve" smooth="yes"/>
      <point x="320" y="560" type="line" smooth="yes"/>
      <point x="320" y="533"/>
      <point x="303" y="516" type="qcurve" smooth="yes"/>
      <point x="280" y="493" type="line"/>
      <point x="303" y="470" type="line" smooth="yes"/>
      <point x="320" y="453"/>
      <point x="320" y="426" type="qcurve" smooth="yes"/>
      <point x="320" y="380" type="line" smooth="yes"/>
      <point x="320" y="280"/>
      <point x="220" y="280" type="qcurve" smooth="yes"/>
      <point x="78" y="280" type="line"/>
    </contour>
  </outline>
</glyph>
<glyph name="paragraph" format="2">
  <advance width="580"/>
  <unicode hex="00B6"/>
  <outline>
    <contour>
      <point x="70" y="390" type="qcurve" smooth="yes"/>
      <point x="70" y="540" type="line" smooth="yes"/>
      <point x="70" y="690"/>
      <point x="220" y="690" type="qcurve" smooth="yes"/>
      <point x="330" y="690" type="line"/>
      <point x="330" y="240" type="line"/>
      <point x="220" y="240" type="line" smooth="yes"/>
      <point x="70" y="240"/>
    </contour>
    <contour>
      <point x="400" y="-170" type="line"/>
      <point x="400" y="690" type="line"/>
      <point x="480" y="690" type="line"/>
      <point x="480" y="-170" type="line"/>
    </contour>
  </outline>
</glyph>
<glyph name="Eth" format="2">
  <advance width="690"/>
  <unicode hex="00D0"/>
  <outline>
    <contour>
      <point x="20" y="312" type="line"/>
      <point x="20" y="378" type="line"/>
      <point x="100" y="378" type="line"/>
      <point x="100" y="690" type="line"/>
      <point x="396" y="690" type="line" smooth="yes"/>
      <point x="620" y="690"/>
      <point x="620" y="466" type="qcurve" smooth="yes"/>
      <point x="620" y="224" type="line" smooth="yes"/>
      <point x="620" y="0"/>
      <point x="396" y="0" type="qcurve" smooth="yes"/>
      <point x="100" y="0" type="line"/>
      <point x="100" y="312" type="line"/>
    </contour>
    <contour>
      <point x="184" y="76" type="line"/>
      <point x="396" y="76" type="line" smooth="yes"/>
      <point x="536" y="76"/>
      <point x="536" y="216" type="qcurve" smooth="yes"/>
      <point x="536" y="474" type="line" smooth="yes"/>
      <point x="536" y="614"/>
      <point x="396" y="614" type="qcurve" smooth="yes"/>
      <point x="184" y="614" type="line"/>
      <point x="184" y="378" type="line"/>
      <point x="360" y="378" type="line"/>
      <point x="360" y="312" type="line"/>
      <point x="184" y="312" type="line"/>
    </contour>
  </outline>
</glyph>
<glyph name="Oslash" format="2">
  <advance width="700"/>
  <unicode hex="00D8"/>
  <outline>
    <contour>
      <point x="80" y="153" type="qcurve" smooth="yes"/>
      <point x="80" y="537" type="line" smooth="yes"/>
      <point x="80" y="690"/>
      <point x="233" y="690" type="qcurve" smooth="yes"/>
      <point x="467" y="690" type="line" smooth="yes"/>
      <point x="620" y="690"/>
      <point x="620" y="537" type="qcurve" smooth="yes"/>
      <point x="620" y="153" type="line" smooth="yes"/>
      <point x="620" y="0"/>
      <point x="467" y="0" type="qcurve" smooth="yes"/>
      <point x="233" y="0" type="line" smooth="yes"/>
      <point x="80" y="0"/>
    </contour>
    <contour>
      <point x="164" y="221" type="line"/>
      <point x="535" y="555" type="line"/>
      <point x="531" y="614"/>
      <point x="468" y="614" type="qcurve" smooth="yes"/>
      <point x="232" y="614" type="line" smooth="yes"/>
      <point x="164" y="614"/>
      <point x="164" y="546" type="qcurve" smooth="yes"/>
    </contour>
    <contour>
      <point x="165" y="135" type="line"/>
      <point x="169" y="76"/>
      <point x="232" y="76" type="qcurve" smooth="yes"/>
      <point x="468" y="76" type="line" smooth="yes"/>
      <point x="536" y="76"/>
      <point x="536" y="144" type="qcurve" smooth="yes"/>
      <point x="536" y="469" type="line"/>
    </contour>
  </outline>
</glyph>
<glyph name="Thorn" format="2">
  <advance width="630"/>
  <unicode hex="00DE"/>
  <outline>
    <contour>
      <point x="90" y="0" type="line"/>
      <point x="90" y="690" type="line"/>
      <point x="174" y="690" type="line"/>
      <point x="174" y="570" type="line"/>
      <point x="417" y="570" type="line" smooth="yes"/>
      <point x="570" y="570"/>
      <point x="570" y="417" type="qcurve" smooth="yes"/>
      <point x="570" y="287" type="line" smooth="yes"/>
      <point x="570" y="134"/>
      <point x="417" y="134" type="qcurve" smooth="yes"/>
      <point x="174" y="134" type="line"/>
      <point x="174" y="0" type="line"/>
    </contour>
    <contour>
      <point x="174" y="210" type="line"/>
      <point x="418" y="210" type="line" smooth="yes"/>
      <point x="486" y="210"/>
      <point x="486" y="278" type="qcurve" smooth="yes"/>
      <point x="486" y="426" type="line" smooth="yes"/>
      <point x="486" y="494"/>
      <point x="418" y="494" type="qcurve" smooth="yes"/>
      <point x="174" y="494" type="line"/>
    </contour>
  </outline>
</glyph>
<glyph name="germandbls" format="2">
  <advance width="602"/>
  <unicode hex="00DF"/>
  <outline>
    <contour>
      <point x="80" y="0" type="line"/>
      <point x="80" y="590" type="line" smooth="yes"/>
      <point x="80" y="740"/>
      <point x="230" y="740" type="qcurve" smooth="yes"/>
      <point x="360" y="740" type="line" smooth="yes"/>
      <point x="510" y="740"/>
      <point x="510" y="590" type="qcurve" smooth="yes"/>
      <point x="510" y="491" type="line" smooth="yes"/>
      <point x="510" y="457"/>
      <point x="490" y="433" type="qcurve" smooth="yes"/>
      <point x="455" y="391" type="line"/>
      <point x="497" y="356" type="line" smooth="yes"/>
      <point x="530" y="328"/>
      <point x="530" y="276" type="qcurve" smooth="yes"/>
      <point x="530" y="150" type="line" smooth="yes"/>
      <point x="530" y="0"/>
      <point x="380" y="0" type="qcurve" smooth="yes"/>
      <point x="290" y="0" type="line"/>
      <point x="250" y="30" type="line"/>
      <point x="250" y="70" type="line"/>
      <point x="380" y="70" type="line" smooth="yes"/>
      <point x="450" y="70"/>
      <point x="450" y="140" type="qcurve" smooth="yes"/>
      <point x="450" y="280" type="line" smooth="yes"/>
      <point x="450" y="350"/>
      <point x="380" y="350" type="qcurve" smooth="yes"/>
      <point x="260" y="350" type="line"/>
      <point x="260" y="420" type="line"/>
      <point x="360" y="420" type="line" smooth="yes"/>
      <point x="430" y="420"/>
      <point x="430" y="490" type="qcurve" smooth="yes"/>
      <point x="430" y="600" type="line" smooth="yes"/>
      <point x="430" y="670"/>
      <point x="360" y="670" type="qcurve" smooth="yes"/>
      <point x="230" y="670" type="line" smooth="yes"/>
      <point x="160" y="670"/>
      <point x="160" y="600" type="qcurve" smooth="yes"/>
      <point x="160" y="0" type="line"/>
    </contour>
  </outline>
</glyph>
<glyph name="ae" format="2">
  <advance width="874"/>
  <unicode hex="00E6"/>
  <outline>
    <contour>
      <point x="203" y="0" type="line" smooth="yes"/>
      <point x="52" y="0"/>
      <point x="52" y="302"/>
      <point x="203" y="302" type="qcurve" smooth="yes"/>
      <point x="382" y="302" type="line"/>
      <point x="382" y="380" type="line" smooth="yes"/>
      <point x="382" y="450"/>
      <point x="312" y="450" type="qcurve" smooth="yes"/>
      <point x="102" y="450" type="line"/>
      <point x="102" y="490" type="line"/>
      <point x="142" y="520" type="line"/>
      <point x="312" y="520" type="line" smooth="yes"/>
      <point x="382" y="520"/>
      <point x="422" y="480" type="qcurve"/>
      <point x="462" y="520"/>
      <point x="532" y="520" type="qcurve" smooth="yes"/>
      <point x="652" y="520" type="line" smooth="yes"/>
      <point x="802" y="520"/>
      <point x="802" y="370" type="qcurve" smooth="yes"/>
      <point x="802" y="226" type="line"/>
      <point x="462" y="226" type="line"/>
      <point x="462" y="140" type="line" smooth="yes"/>
      <point x="462" y="70"/>
      <point x="532" y="70" type="qcurve" smooth="yes"/>
      <point x="782" y="70" type="line"/>
      <point x="782" y="30" type="line"/>
      <point x="742" y="0" type="line"/>
      <point x="532" y="0" type="line" smooth="yes"/>
      <point x="462" y="0"/>
      <point x="422" y="40" type="qcurve"/>
      <point x="382" y="0"/>
      <point x="312" y="0" type="qcurve" smooth="yes"/>
    </contour>
    <contour>
      <point x="132" y="140" type="line" smooth="yes"/>
      <point x="132" y="70"/>
      <point x="202" y="70" type="qcurve" smooth="yes"/>
      <point x="312" y="70" type="line" smooth="yes"/>
      <point x="382" y="70"/>
      <point x="382" y="140" type="qcurve" smooth="yes"/>
      <point x="382" y="232" type="line"/>
      <point x="202" y="232" type="line" smooth="yes"/>
      <point x="132" y="232"/>
      <point x="132" y="162" type="qcurve" smooth="yes"/>
    </contour>
    <contour>
      <point x="462" y="296" type="line"/>
      <point x="722" y="296" type="line"/>
      <point x="722" y="380" type="line" smooth="yes"/>
      <point x="722" y="450"/>
      <point x="652" y="450" type="qcurve" smooth="yes"/>
      <point x="532" y="450" type="line" smooth="yes"/>
      <point x="462" y="450"/>
      <point x="462" y="380" type="qcurve" smooth="yes"/>
    </contour>
  </outline>
</glyph>
<glyph name="divide" format="2">
  <advance width="578"/>
  <unicode hex="00F7"/>
  <outline>
    <contour>
      <point x="64" y="300" type="line"/>
      <point x="64" y="370" type="line"/>
      <point x="514" y="370" type="line"/>
      <point x="514" y="300" type="line"/>
    </contour>
    <contour>
      <point x="244" y="100" type="line"/>
      <point x="244" y="190" type="line"/>
      <point x="334" y="190" type="line"/>
      <point x="334" y="100" type="line"/>
    </contour>
    <contour>
      <point x="244" y="480" type="line"/>
      <point x="244" y="570" type="line"/>
      <point x="334" y="570" type="line"/>
      <point x="334" y="480" type="line"/>
    </contour>
  </outline>
</glyph>
<glyph name="Lslash" format="2">
  <advance width="544"/>
  <unicode hex="0141"/>
  <outline>
    <contour>
      <point x="10" y="283" type="line"/>
      <point x="100" y="335" type="line"/>
      <point x="100" y="690" type="line"/>
      <point x="184" y="690" type="line"/>
      <point x="184" y="383" type="line"/>
      <point x="320" y="462" type="line"/>
      <point x="353" y="405" type="line"/>
      <point x="184" y="308" type="line"/>
      <point x="184" y="76" type="line"/>
      <point x="520" y="76" type="line"/>
      <point x="520" y="0" type="line"/>
      <point x="100" y="0" type="line"/>
      <point x="100" y="259" type="line"/>
      <point x="43" y="226" type="line"/>
    </contour>
  </outline>
</glyph>
<glyph name="OE" format="2">
  <advance width="962"/>
  <unicode hex="0152"/>
  <outline>
    <contour>
      <point x="80" y="153" type="qcurve" smooth="yes"/>
      <point x="80" y="537" type="line" smooth="yes"/>
      <point x="80" y="690"/>
      <point x="233" y="690" type="qcurve" smooth="yes"/>
      <point x="912" y="690" type="line"/>
      <point x="912" y="614" type="line"/>
      <point x="576" y="614" type="line"/>
      <point x="576" y="400" type="line"/>
      <point x="882" y="400" type="line"/>
      <point x="882" y="324" type="line"/>
      <point x="576" y="324" type="line"/>
      <point x="576" y="76" type="line"/>
      <point x="912" y="76" type="line"/>
      <point x="912" y="0" type="line"/>
      <point x="233" y="0" type="line" smooth="yes"/>
      <point x="80" y="0"/>
    </contour>
    <contour>
      <point x="164" y="144" type="line" smooth="yes"/>
      <point x="164" y="76"/>
      <point x="232" y="76" type="qcurve" smooth="yes"/>
      <point x="492" y="76" type="line"/>
      <point x="492" y="614" type="line"/>
      <point x="232" y="614" type="line" smooth="yes"/>
      <point x="164" y="614"/>
      <point x="164" y="546" type="qcurve" smooth="yes"/>
    </contour>
  </outline>
</glyph>
<glyph name="uni0237" format="2">
  <advance width="240"/>
  <unicode hex="0237"/>
  <outline>
    <contour>
      <point x="-8" y="-138" type="line"/>
      <point x="80" y="-134"/>
      <point x="80" y="-48" type="qcurve" smooth="yes"/>
      <point x="80" y="520" type="line"/>
      <point x="160" y="520" type="line"/>
      <point x="160" y="-40" type="line" smooth="yes"/>
      <point x="160" y="-208"/>
      <point x="-8" y="-208" type="qcurve"/>
    </contour>
  </outline>
</glyph>
<glyph name="uni0300" format="2">
  <advance width="0"/>
  <unicode hex="0300"/>
  <outline>
    <contour>
      <point x="-404" y="709" type="line"/>
      <point x="-352" y="758" type="line"/>
      <point x="-224" y="613" type="line"/>
      <point x="-267" y="572" type="line"/>
    </contour>
  </outline>
</glyph>
<glyph name="uni0301" format="2">
  <advance width="0"/>
  <unicode hex="0301"/>
  <outline>
    <contour>
      <point x="-348" y="613" type="line"/>
      <point x="-220" y="758" type="line"/>
      <point x="-168" y="709" type="line"/>
      <point x="-305" y="572" type="line"/>
    </contour>
  </outline>
</glyph>
<glyph name="uni0302" format="2">
  <advance width="0"/>
  <unicode hex="0302"/>
  <outline>
    <contour>
      <point x="-424" y="623" type="line"/>
      <point x="-286" y="758" type="line"/>
      <point x="-148" y="623" type="line"/>
      <point x="-187" y="582" type="line"/>
      <point x="-286" y="676" type="line"/>
      <point x="-385" y="582" type="line"/>
    </contour>
  </outline>
</glyph>
<glyph name="uni0307" format="2">
  <advance width="0"/>
  <unicode hex="0307"/>
  <outline>
    <contour>
      <point x="-328" y="614" type="line"/>
      <point x="-328" y="706" type="line"/>
      <point x="-244" y="706" type="line"/>
      <point x="-244" y="614" type="line"/>
    </contour>
  </outline>
</glyph>
<glyph name="uni0308" format="2">
  <advance width="0"/>
  <unicode hex="0308"/>
  <outline>
    <contour>
      <point x="-416" y="614" type="line"/>
      <point x="-416" y="702" type="line"/>
      <point x="-336" y="702" type="line"/>
      <point x="-336" y="614" type="line"/>
    </contour>
    <contour>
      <point x="-236" y="614" type="line"/>
      <point x="-236" y="702" type="line"/>
      <point x="-156" y="702" type="line"/>
      <point x="-156" y="614" type="line"/>
    </contour>
  </outline>
</glyph>
<glyph name="uni030A" format="2">
  <advance width="0"/>
  <unicode hex="030A"/>
  <outline>
    <contour>
      <point x="-388" y="642" type="qcurve" smooth="yes"/>
      <point x="-388" y="698" type="line" smooth="yes"/>
      <point x="-388" y="768"/>
      <point x="-318" y="768" type="qcurve" smooth="yes"/>
      <point x="-254" y="768" type="line" smooth="yes"/>
      <point x="-184" y="768"/>
      <point x="-184" y="698" type="qcurve" smooth="yes"/>
      <point x="-184" y="642" type="line" smooth="yes"/>
      <point x="-184" y="572"/>
      <point x="-254" y="572" type="qcurve" smooth="yes"/>
      <point x="-318" y="572" type="line" smooth="yes"/>
      <point x="-388" y="572"/>
    </contour>
    <contour>
      <point x="-336" y="638" type="line" smooth="yes"/>
      <point x="-336" y="618"/>
      <point x="-316" y="618" type="qcurve" smooth="yes"/>
      <point x="-256" y="618" type="line" smooth="yes"/>
      <point x="-236" y="618"/>
      <point x="-236" y="638" type="qcurve" smooth="yes"/>
      <point x="-236" y="702" type="line" smooth="yes"/>
      <point x="-236" y="722"/>
      <point x="-256" y="722" type="qcurve" smooth="yes"/>
      <point x="-316" y="722" type="line" smooth="yes"/>
      <point x="-336" y="722"/>
      <point x="-336" y="702" type="qcurve" smooth="yes"/>
    </contour>
  </outline>
</glyph>
<glyph name="uni030B" format="2">
  <advance width="0"/>
  <unicode hex="030B"/>
  <outline>
    <contour>
      <point x="-414" y="609" type="line"/>
      <point x="-302" y="758" type="line"/>
      <point x="-248" y="714" type="line"/>
      <point x="-370" y="572" type="line"/>
    </contour>
    <contour>
      <point x="-249" y="609" type="line"/>
      <point x="-137" y="758" type="line"/>
      <point x="-83" y="714" type="line"/>
      <point x="-205" y="572" type="line"/>
    </contour>
  </outline>
</glyph>
<glyph name="uni030C" format="2">
  <advance width="0"/>
  <unicode hex="030C"/>
  <outline>
    <contour>
      <point x="-424" y="707" type="line"/>
      <point x="-385" y="748" type="line"/>
      <point x="-286" y="654" type="line"/>
      <point x="-187" y="748" type="line"/>
      <point x="-148" y="707" type="line"/>
      <point x="-286" y="572" type="line"/>
    </contour>
  </outline>
</glyph>
<glyph name="uni0326" format="2">
  <advance width="0"/>
  <unicode hex="0326"/>
  <outline>
    <contour>
      <point x="-356" y="-184" type="line"/>
      <point x="-324" y="-50" type="line"/>
      <point x="-253" y="-50" type="line"/>
      <point x="-244" y="-64" type="line"/>
      <point x="-300" y="-200" type="line"/>
    </contour>
  </outline>
</glyph>
<glyph name="uni0328" format="2">
  <advance width="0"/>
  <unicode hex="0328"/>
  <outline>
    <contour>
      <point x="-360" y="-42" type="line" smooth="yes"/>
      <point x="-360" y="58"/>
      <point x="-260" y="58" type="qcurve" smooth="yes"/>
      <point x="-236" y="58" type="line"/>
      <point x="-236" y="0" type="line"/>
      <point x="-264" y="0" type="line" smooth="yes"/>
      <point x="-296" y="0"/>
      <point x="-296" y="-32" type="qcurve" smooth="yes"/>
      <point x="-296" y="-90" type="line" smooth="yes"/>
      <point x="-296" y="-122"/>
      <point x="-264" y="-122" type="qcurve" smooth="yes"/>
      <point x="-168" y="-122" type="line"/>
      <point x="-168" y="-155" type="line"/>
      <point x="-200" y="-180" type="line"/>
      <point x="-260" y="-180" type="line" smooth="yes"/>
      <point x="-360" y="-180"/>
      <point x="-360" y="-80" type="qcurve" smooth="yes"/>
    </contour>
  </outline>
</glyph>
<glyph name="pi" format="2">
  <advance width="590"/>
  <unicode hex="03C0"/>
  <outline>
    <contour>
      <point x="80" y="0" type="line"/>
      <point x="80" y="520" type="line"/>
      <point x="510" y="520" type="line"/>
      <point x="510" y="0" type="line"/>
      <point x="430" y="0" type="line"/>
      <point x="430" y="450" type="line"/>
      <point x="160" y="450" type="line"/>
      <point x="160" y="0" type="line"/>
    </contour>
  </outline>
</glyph>
<glyph name="uni1E9E" format="2">
  <advance width="684"/>
  <unicode hex="1E9E"/>
  <outline>
    <contour>
      <point x="84" y="0" type="line"/>
      <point x="84" y="537" type="line" smooth="yes"/>
      <point x="84" y="690"/>
      <point x="237" y="690" type="qcurve" smooth="yes"/>
      <point x="564" y="690" type="line"/>
      <point x="564" y="623" type="line"/>
      <point x="396" y="400" type="line"/>
      <point x="471" y="400" type="line" smooth="yes"/>
      <point x="624" y="400"/>
      <point x="624" y="247" type="qcurve" smooth="yes"/>
      <point x="624" y="153" type="line" smooth="yes"/>
      <point x="624" y="0"/>
      <point x="471" y="0" type="qcurve" smooth="yes"/>
      <point x="319" y="0" type="line"/>
      <point x="274" y="35" type="line"/>
      <point x="274" y="76" type="line"/>
      <point x="472" y="76" type="line" smooth="yes"/>
      <point x="540" y="76"/>
      <point x="540" y="144" type="qcurve" smooth="yes"/>
      <point x="540" y="256" type="line" smooth="yes"/>
      <point x="540" y="324"/>
      <point x="472" y="324" type="qcurve" smooth="yes"/>
      <point x="294" y="324" type="line"/>
      <point x="294" y="391" type="line"/>
      <point x="462" y="614" type="line"/>
      <point x="236" y="614" type="line" smooth="yes"/>
      <point x="168" y="614"/>
      <point x="168" y="546" type="qcurve" smooth="yes"/>
      <point x="168" y="0" type="line"/>
    </contour>
  </outline>
</glyph>
<glyph name="guilsinglleft" format="2">
  <advance width="300"/>
  <unicode hex="2039"/>
  <outline>
    <contour>
      <point x="30" y="315" type="line"/>
      <point x="209" y="540" type="line"/>
      <point x="260" y="498" type="line"/>
      <point x="119" y="315" type="line"/>
      <point x="260" y="132" type="line"/>
      <point x="209" y="90" type="line"/>
    </contour>
  </outline>
</glyph>
<glyph name="fraction" format="2">
  <advance width="140"/>
  <unicode hex="2044"/>
  <outline>
    <contour>
      <point x="-125" y="30" type="line"/>
      <point x="205" y="690" type="line"/>
      <point x="265" y="660" type="line"/>
      <point x="-65" y="0" type="line"/>
    </contour>
  </outline>
</glyph>
<glyph name="product" format="2">
  <advance width="700"/>
  <unicode hex="220F"/>
  <outline>
    <contour>
      <point x="90" y="-100" type="line"/>
      <point x="90" y="690" type="line"/>
      <point x="610" y="690" type="line"/>
      <point x="610" y="-100" type="line"/>
      <point x="526" y="-100" type="line"/>
      <point x="526" y="614" type="line"/>
      <point x="174" y="614" type="line"/>
      <point x="174" y="-100" type="line"/>
    </contour>
  </outline>
</glyph>
<glyph name="summation" format="2">
  <advance width="580"/>
  <unicode hex="2211"/>
  <outline>
    <contour>
      <point x="50" y="-33" type="line"/>
      <point x="280" y="295" type="line"/>
      <point x="50" y="623" type="line"/>
      <point x="50" y="690" type="line"/>
      <point x="530" y="690" type="line"/>
      <point x="530" y="614" type="line"/>
      <point x="152" y="614" type="line"/>
      <point x="375" y="295" type="line"/>
      <point x="152" y="-24" type="line"/>
      <point x="530" y="-24" type="line"/>
      <point x="530" y="-100" type="line"/>
      <point x="50" y="-100" type="line"/>
    </contour>
  </outline>
</glyph>
<glyph name="integral" format="2">
  <advance width="420"/>
  <unicode hex="222B"/>
  <outline>
    <contour>
      <point x="20" y="-130" type="line"/>
      <point x="100" y="-130" type="line" smooth="yes"/>
      <point x="170" y="-130"/>
      <point x="170" y="-60" type="qcurve" smooth="yes"/>
      <point x="170" y="590" type="line" smooth="yes"/>
      <point x="170" y="740"/>
      <point x="320" y="740" type="qcurve" smooth="yes"/>
      <point x="360" y="740" type="line"/>
      <point x="400" y="710" type="line"/>
      <point x="400" y="670" type="line"/>
      <point x="320" y="670" type="line" smooth="yes"/>
      <point x="250" y="670"/>
      <point x="250" y="600" type="qcurve" smooth="yes"/>
      <point x="250" y="-50" type="line" smooth="yes"/>
      <point x="250" y="-200"/>
      <point x="100" y="-200" type="qcurve" smooth="yes"/>
      <point x="60" y="-200" type="line"/>
      <point x="20" y="-170" type="line"/>
    </contour>
  </outline>
</glyph>
<glyph name="lessequal" format="2">
  <advance width="578"/>
  <unicode hex="2264"/>
  <outline>
    <contour>
      <point x="64" y="0" type="line"/>
      <point x="64" y="70" type="line"/>
      <point x="514" y="70" type="line"/>
      <point x="514" y="0" type="line"/>
    </contour>
    <contour>
      <point x="64" y="316" type="line"/>
      <point x="64" y="394" type="line"/>
      <point x="484" y="595" type="line"/>
      <point x="514" y="532" type="line"/>
      <point x="136" y="355" type="line"/>
      <point x="514" y="178" type="line"/>
      <point x="484" y="115" type="line"/>
    </contour>
  </outline>
</glyph>
<glyph name="greaterequal" format="2">
  <advance width="578"/>
  <unicode hex="2265"/>
  <outline>
    <contour>
      <point x="64" y="0" type="line"/>
      <point x="64" y="70" type="line"/>
      <point x="514" y="70" type="line"/>
      <point x="514" y="0" type="line"/>
    </contour>
    <contour>
      <point x="64" y="178" type="line"/>
      <point x="442" y="355" type="line"/>
      <point x="64" y="532" type="line"/>
      <point x="94" y="595" type="line"/>
      <point x="514" y="394" type="line"/>
      <point x="514" y="316" type="line"/>
      <point x="94" y="115" type="line"/>
    </contour>
  </outline>
</glyph>
<glyph name="lozenge" format="2">
  <advance width="578"/>
  <unicode hex="25CA"/>
  <outline>
    <contour>
      <point x="54" y="345" type="line"/>
      <point x="252" y="690" type="line"/>
      <point x="326" y="690" type="line"/>
      <point x="524" y="345" type="line"/>
      <point x="326" y="0" type="line"/>
      <point x="252" y="0" type="line"/>
    </contour>
    <contour>
      <point x="128" y="345" type="line"/>
      <point x="289" y="64" type="line"/>
      <point x="450" y="345" type="line"/>
      <point x="289" y="626" type="line"/>
    </contour>
  </outline>
</glyph>
<glyph name=".notdef" format="2">
  <advance width="586"/>
  <outline>
    <contour>
      <point x="93" y="0" type="line"/>
      <point x="93" y="740" type="line"/>
      <point x="493" y="740" type="line"/>
      <point x="493" y="0" type="line"/>
    </contour>
    <contour>
      <point x="143" y="50" type="line"/>
      <point x="443" y="50" type="line"/>
      <point x="443" y="690" type="line"/>
      <point x="143" y="690" type="line"/>
    </contour>
  </outline>
</glyph>
<glyph name="uni0300.cap" format="2">
  <advance width="0"/>
  <outline>
    <contour>
      <point x="-438" y="869" type="line"/>
      <point x="-386" y="918" type="line"/>
      <point x="-258" y="773" type="line"/>
      <point x="-301" y="732" type="line"/>
    </contour>
  </outline>
</glyph>
<glyph name="uni0302.cap" format="2">
  <advance width="0"/>
  <outline>
    <contour>
      <point x="-458" y="783" type="line"/>
      <point x="-320" y="918" type="line"/>
      <point x="-182" y="783" type="line"/>
      <point x="-221" y="742" type="line"/>
      <point x="-320" y="836" type="line"/>
      <point x="-419" y="742" type="line"/>
    </contour>
  </outline>
</glyph>
<glyph name="uni0303.cap" format="2">
  <advance width="0"/>
  <outline>
    <contour>
      <point x="-475" y="798" type="line"/>
      <point x="-421" y="852" type="line" smooth="yes"/>
      <point x="-399" y="874"/>
      <point x="-341" y="874"/>
      <point x="-319" y="852" type="qcurve" smooth="yes"/>
      <point x="-287" y="820" type="line" smooth="yes"/>
      <point x="-279" y="812"/>
      <point x="-261" y="812"/>
      <point x="-253" y="820" type="qcurve" smooth="yes"/>
      <point x="-204" y="869" type="line"/>
      <point x="-165" y="830" type="line"/>
      <point x="-219" y="776" type="line" smooth="yes"/>
      <point x="-241" y="754"/>
      <point x="-299" y="754"/>
      <point x="-321" y="776" type="qcurve" smooth="yes"/>
      <point x="-353" y="808" type="line" smooth="yes"/>
      <point x="-361" y="816"/>
      <point x="-379" y="816"/>
      <point x="-387" y="808" type="qcurve" smooth="yes"/>
      <point x="-436" y="759" type="line"/>
    </contour>
  </outline>
</glyph>
<glyph name="uni0306.cap" format="2">
  <advance width="0"/>
  <outline>
    <contour>
      <point x="-445" y="830" type="qcurve" smooth="yes"/>
      <point x="-445" y="888" type="line"/>
      <point x="-391" y="888" type="line"/>
      <point x="-391" y="830" type="line" smooth="yes"/>
      <point x="-391" y="812"/>
      <point x="-373" y="812" type="qcurve" smooth="yes"/>
      <point x="-267" y="812" type="line" smooth="yes"/>
      <point x="-249" y="812"/>
      <point x="-249" y="830" type="qcurve" smooth="yes"/>
      <point x="-249" y="888" type="line"/>
      <point x="-195" y="888" type="line"/>
      <point x="-195" y="830" type="line" smooth="yes"/>
      <point x="-195" y="758"/>
      <point x="-267" y="758" type="qcurve" smooth="yes"/>
      <point x="-373" y="758" type="line" smooth="yes"/>
      <point x="-445" y="758"/>
    </contour>
  </outline>
</glyph>
<glyph name="uni0308.cap" format="2">
  <advance width="0"/>
  <outline>
    <contour>
      <point x="-450" y="774" type="line"/>
      <point x="-450" y="862" type="line"/>
      <point x="-370" y="862" type="line"/>
      <point x="-370" y="774" type="line"/>
    </contour>
    <contour>
      <point x="-270" y="774" type="line"/>
      <point x="-270" y="862" type="line"/>
      <point x="-190" y="862" type="line"/>
      <point x="-190" y="774" type="line"/>
    </contour>
  </outline>
</glyph>
<glyph name="uni030B.cap" format="2">
  <advance width="0"/>
  <outline>
    <contour>
      <point x="-448" y="769" type="line"/>
      <point x="-336" y="918" type="line"/>
      <point x="-282" y="874" type="line"/>
      <point x="-404" y="732" type="line"/>
    </contour>
    <contour>
      <point x="-283" y="769" type="line"/>
      <point x="-171" y="918" type="line"/>
      <point x="-117" y="874" type="line"/>
      <point x="-239" y="732" type="line"/>
    </contour>
  </outline>
</glyph>
<glyph name="uni030C.cap" format="2">
  <advance width="0"/>
  <outline>
    <contour>
      <point x="-458" y="867" type="line"/>
      <point x="-419" y="908" type="line"/>
      <point x="-320" y="814" type="line"/>
      <point x="-221" y="908" type="line"/>
      <point x="-182" y="867" type="line"/>
      <point x="-320" y="732" type="line"/>
    </contour>
  </outline>
</glyph>
<glyph name="uni0326.alt" format="2">
  <advance width="0"/>
  <outline>
    <contour>
      <point x="-32" y="608" type="line"/>
      <point x="24" y="744" type="line"/>
      <point x="80" y="728" type="line"/>
      <point x="48" y="594" type="line"/>
      <point x="-23" y="594" type="line"/>
    </contour>
  </outline>
</glyph>
<glyph name="zero.zero" format="2">
  <advance width="578"/>
  <outline>
    <contour>
      <point x="64" y="153" type="qcurve" smooth="yes"/>
      <point x="64" y="537" type="line" smooth="yes"/>
      <point x="64" y="690"/>
      <point x="217" y="690" type="qcurve" smooth="yes"/>
      <point x="361" y="690" type="line" smooth="yes"/>
      <point x="514" y="690"/>
      <point x="514" y="537" type="qcurve" smooth="yes"/>
      <point x="514" y="153" type="line" smooth="yes"/>
      <point x="514" y="0"/>
      <point x="361" y="0" type="qcurve" smooth="yes"/>
      <point x="217" y="0" type="line" smooth="yes"/>
      <point x="64" y="0"/>
    </contour>
    <contour>
      <point x="148" y="144" type="line" smooth="yes"/>
      <point x="148" y="76"/>
      <point x="216" y="76" type="qcurve" smooth="yes"/>
      <point x="362" y="76" type="line" smooth="yes"/>
      <point x="430" y="76"/>
      <point x="430" y="144" type="qcurve" smooth="yes"/>
      <point x="430" y="546" type="line" smooth="yes"/>
      <point x="430" y="614"/>
      <point x="362" y="614" type="qcurve" smooth="yes"/>
      <point x="216" y="614" type="line" smooth="yes"/>
      <point x="148" y="614"/>
      <point x="148" y="546" type="qcurve" smooth="yes"/>
    </contour>
    <contour>
      <point x="243" y="285" type="line"/>
      <point x="243" y="405" type="line"/>
      <point x="335" y="405" type="line"/>
      <point x="335" y="285" type="line"/>
    </contour>
  </outline>
</glyph>
